<?xml version="1.0" standalone="no"?>
<!DOCTYPE svg PUBLIC "-//W3C//DTD SVG 20010904//EN"
 "http://www.w3.org/TR/2001/REC-SVG-20010904/DTD/svg10.dtd">
<svg version="1.0" xmlns="http://www.w3.org/2000/svg"
 width="720.000000pt" height="377.000000pt" viewBox="0 0 720.000000 377.000000"
 preserveAspectRatio="xMidYMid meet">

<g transform="translate(0.000000,377.000000) scale(0.100000,-0.100000)"
fill="#000000" stroke="none">
<path fill="#000000" d="M4135 3565 c-652 -156 -1790 -523 -3010 -972 -651 -240 -706 -267
-769 -383 l-28 -52 6 -546 c4 -301 9 -585 13 -632 6 -85 6 -84 42 204 l36 290
30 7 c17 4 157 29 311 55 l282 47 6 36 c3 20 8 189 12 375 7 332 7 339 -12
332 -10 -4 -102 -39 -204 -78 -102 -39 -202 -79 -222 -89 -46 -24 -78 -64
-134 -176 l-45 -88 6 81 c10 145 46 231 122 289 50 38 -28 12 1458 489 1553
498 1784 570 1791 563 2 -2 -103 -41 -233 -86 -500 -175 -1883 -670 -2335
-837 -87 -32 -160 -64 -163 -72 -8 -20 42 -576 61 -679 4 -22 12 -33 23 -33
26 0 667 101 729 115 l22 5 0 238 c0 245 10 585 17 578 4 -4 72 -708 73 -751
1 -42 9 -44 125 -29 161 21 687 104 697 110 4 3 8 229 9 502 1 310 4 482 10
457 5 -22 20 -182 34 -355 14 -173 31 -377 37 -452 l11 -138 36 5 c154 22 871
115 927 121 l71 6 6 172 c4 94 8 281 8 416 1 135 4 315 8 400 l6 155 23 -290
c36 -459 50 -745 93 -1840 6 -165 14 -302 16 -305 3 -3 127 -6 276 -7 l272 -2
-221 46 -222 47 -6 81 c-9 113 -34 659 -42 919 l-7 219 33 -7 c64 -12 135 -53
188 -107 29 -30 110 -139 180 -244 70 -104 156 -220 190 -257 l64 -67 59 -257
c32 -141 60 -258 61 -260 2 -1 2 99 0 222 -2 144 0 224 6 224 6 0 70 -9 143
-20 452 -67 1046 -65 1442 6 l88 16 -3 42 -3 41 -60 -2 c-33 -1 -107 -6 -165
-12 -147 -15 -885 -36 -943 -27 -27 4 -47 10 -44 12 3 3 115 20 250 39 270 37
533 82 714 121 211 45 225 51 215 100 -4 25 -7 26 -48 20 -197 -27 -1012 -60
-992 -41 3 3 124 26 268 51 275 47 549 102 660 132 l65 17 0 40 0 40 -60 -1
c-33 0 -132 -6 -220 -12 -237 -17 -526 -24 -495 -12 14 5 160 37 325 70 165
33 324 67 353 75 58 17 59 20 41 106 l-11 52 -67 -6 c-281 -26 -554 -47 -558
-43 -8 8 56 22 331 75 142 28 261 52 264 55 6 7 -60 199 -129 377 -29 74 -92
212 -141 308 l-88 174 55 -7 c30 -3 76 -11 103 -16 48 -11 48 -11 104 -113 59
-105 140 -281 173 -375 11 -29 27 -61 36 -71 24 -26 81 -34 145 -21 68 14 74
33 45 128 -25 84 -137 312 -192 393 -69 102 -131 129 -427 185 l-143 27 -88
82 c-69 63 -101 85 -142 98 -106 33 -576 126 -819 162 -105 16 -366 45 -400
45 -17 0 -16 -8 14 -97 l32 -97 158 -23 c270 -39 330 -60 379 -130 72 -104
187 -423 220 -609 5 -25 1 -36 -19 -55 -21 -19 -38 -24 -97 -27 -49 -2 -77 1
-89 10 -9 7 -33 67 -53 133 -53 174 -122 368 -163 457 -31 71 -38 79 -71 87
-52 14 -211 34 -218 28 -3 -3 24 -122 60 -264 96 -380 172 -779 211 -1103 18
-156 30 -307 23 -300 -3 3 -46 169 -95 370 -139 558 -236 888 -359 1219 -112
302 -168 415 -203 410 -3 0 -68 -15 -145 -34z"/>
<path fill="#000000" d="M3635 1763 c-16 -2 -102 -12 -190 -23 -315 -39 -2235 -313 -2665
-381 -107 -17 -202 -35 -210 -40 -10 -6 -11 -8 -2 -9 33 0 3302 320 3316 326
9 3 16 9 16 13 0 20 -63 103 -86 111 -24 10 -116 11 -179 3z"/>
<path fill="#000000" d="M3375 1431 c-107 -29 -195 -104 -249 -214 -42 -86 -64 -172 -72 -289
-4 -47 -10 -91 -13 -97 -5 -7 -270 -21 -767 -41 -726 -28 -871 -36 -901 -47
-21 -8 -15 -30 10 -37 12 -3 390 -9 839 -12 l818 -7 6 -34 c3 -18 3 -44 0 -57
-6 -24 -6 -24 -198 -30 -229 -8 -1561 -25 -1567 -20 -2 2 -8 70 -13 151 -14
232 -39 312 -120 389 -63 61 -102 78 -178 78 -111 0 -198 -52 -246 -146 -38
-74 -54 -160 -61 -330 l-6 -157 -124 -3 c-71 -2 -124 -7 -126 -13 -5 -21 153
-75 306 -105 32 -7 65 -19 72 -28 8 -10 30 -37 50 -62 l37 -44 -23 -7 c-13 -4
-179 -15 -369 -23 -458 -22 -469 -35 -45 -56 533 -26 1326 -34 3160 -34 2070
0 3051 14 3405 50 180 19 -133 40 -852 58 -274 7 -501 15 -504 19 -4 3 7 22
24 42 17 19 42 53 54 74 l22 39 141 6 c554 26 759 67 822 163 14 22 18 44 16
113 -3 102 -42 422 -53 433 -9 10 -70 -15 -132 -54 -41 -27 -88 -82 -88 -103
0 -4 29 -4 65 -1 83 9 84 -3 3 -49 l-62 -35 42 5 c23 2 60 6 82 8 l40 4 0 -95
c0 -93 -1 -96 -30 -123 -92 -86 -384 -110 -1300 -109 -767 0 -1380 13 -1390
28 -4 7 -10 86 -13 177 -10 250 -42 375 -122 482 -49 65 -103 107 -166 128
-50 18 -182 26 -224 15z m184 -99 c72 -49 145 -168 160 -264 5 -27 7 -48 5
-48 -1 0 -19 25 -39 56 -76 114 -137 157 -225 158 -81 1 -130 -31 -202 -128
-64 -87 -72 -82 -37 23 27 78 93 178 138 208 52 35 144 32 200 -5z m2 -209
c45 -38 111 -183 83 -183 -3 0 -24 16 -46 35 -81 69 -151 70 -224 3 l-44 -41
0 30 c0 44 50 135 89 160 48 32 101 30 142 -4z m-2532 -33 c57 -29 129 -151
146 -245 l6 -40 -48 70 c-55 80 -96 111 -158 121 -82 12 -140 -27 -217 -144
l-30 -47 6 45 c8 53 46 140 83 188 30 39 93 71 141 72 18 0 50 -9 71 -20z
m2485 -183 c32 -43 30 -136 -3 -171 -34 -36 -55 -33 -76 10 -20 43 -17 152 5
178 19 23 49 16 74 -17z m-2484 -15 c26 -26 56 -100 45 -111 -3 -2 -18 8 -35
24 -41 39 -99 39 -140 0 -37 -35 -48 -26 -31 23 32 90 105 119 161 64z m-32
-168 c11 -36 11 -47 -2 -78 -10 -24 -22 -36 -34 -36 -25 0 -32 18 -32 84 0 85
44 104 68 30z m2332 -144 c68 -57 98 -70 158 -70 59 0 96 16 160 67 24 20 46
32 50 29 19 -20 -95 -163 -152 -190 -45 -21 -104 -20 -142 3 -53 32 -134 145
-134 186 0 22 7 19 60 -25z m-2459 -76 c19 -23 71 -44 108 -44 16 0 51 15 80
34 46 31 51 33 51 15 0 -11 -24 -44 -53 -74 -43 -45 -59 -55 -86 -55 -45 0
-65 13 -111 71 -43 55 -55 98 -22 80 10 -5 25 -18 33 -27z m3649 -60 l336 -7
47 -65 c26 -36 47 -72 47 -80 0 -13 -58 -14 -487 -8 -269 4 -490 9 -492 11 -2
2 10 21 26 42 16 21 41 58 57 82 l28 43 51 -6 c29 -3 203 -8 387 -12z m-1316
-77 c20 -29 36 -57 36 -63 0 -11 -787 -30 -798 -19 -7 7 11 43 47 93 l31 42
324 0 324 0 36 -53z m-1251 -20 c22 -31 38 -60 35 -62 -3 -3 -154 -8 -335 -12
-257 -5 -332 -3 -338 6 -4 8 1 18 14 27 11 8 32 35 47 60 l26 44 255 -2 255
-3 41 -58z"/>
<path fill="#000000" d="M2895 1389 c-44 -5 -354 -38 -690 -74 -837 -89 -868 -93 -896 -104
l-24 -9 30 -8 c53 -13 1264 24 1475 46 160 17 217 42 258 118 l23 42 -48 -1
c-26 -1 -84 -6 -128 -10z"/>
<path fill="#000000" d="M5069 1138 c-4 -132 10 -221 39 -234 29 -13 396 -18 388 -5 -4 6 -13
11 -19 11 -19 0 -227 103 -227 112 0 13 46 10 178 -13 68 -12 126 -18 129 -15
13 13 -53 67 -106 87 -58 22 -237 62 -328 74 -51 7 -53 6 -54 -17z"/>
<path fill="#000000" d="M2795 1100 c-163 -13 -904 -78 -1128 -101 -395 -38 -320 -49 353 -49
511 1 715 9 788 31 48 14 137 90 130 111 -6 16 -20 17 -143 8z"/>
</g>
</svg>
